<?xml version="1.0" encoding="utf-8"?>
<!-- Generator: Adobe Illustrator 25.3.1, SVG Export Plug-In . SVG Version: 6.00 Build 0)  -->
<svg version="1.1" id="Layer_1" xmlns="http://www.w3.org/2000/svg" xmlns:xlink="http://www.w3.org/1999/xlink" x="0px" y="0px"
	 viewBox="0 0 2048 2048" style="enable-background:new 0 0 2048 2048;" xml:space="preserve">
<style type="text/css">
	.st0{fill:#DCE6FF;}
	.st1{fill:#293F6E;}
	.st2{fill:#FE8769;}
	.st3{fill:#FFBBC5;}
	.st4{fill:#8BA4DC;}
	.st5{fill:#BCCCFF;}
	.st6{fill:#1A2942;}
	.st7{fill:#D1618F;}
	.st8{fill:#AF4575;}
	.st9{fill:#E5BF9E;}
	.st10{fill:#F8DBBB;}
	.st11{fill:none;}
</style>
<g>
	<g>
		<path class="st0" d="M1808.08,1268.2c-5.66,74.26-25.02,149.87-71.24,208.26c-56.71,71.63-148.7,111.14-231.86,143.33
			c-89.37,34.58-183.24,56.41-277.96,70.1c-6.71,0.97-13.43,1.9-20.16,2.79c-28.3,3.76-56.69,6.82-85.12,9.31
			c-3.57,0.31-7.14,0.61-10.71,0.91c0,0-0.01,0-0.02,0l-231.59,9.01c-33.6,0.11-67.4-0.42-101.25-1.89h-0.01
			c-139.61-6.04-279.7-27.95-406.56-87.29c-42.85-20.05-84.4-44.76-116.36-79.64c-52.05-56.78-74.22-137.86-64.95-214.33
			c9.26-76.45,48.27-147.8,102.91-202.08c51.59-51.24,119.79-92.67,142.33-161.81c22.03-67.54-6.78-139.87-13.39-210.6
			c-9.33-99.77,28.9-202.95,101-272.57c60.26-58.18,143.16-91.91,226.78-93.91c16.42-0.4,32.85,0.43,49.15,2.53
			c0.23,0.03,0.45,0.06,0.69,0.09c0,0,0,0,0.01,0c17.34,2.28,34.48,5.89,51.49,10.21c0,0,0.01-0.01,0.02,0
			c52.72,13.37,104.29,33.48,157.4,41.42c7.38,1.12,14.8,1.98,22.25,2.55c7.68,0.61,15.42,0.91,23.19,0.84
			c29.25-0.24,57.65-5.56,85.66-13.38c69.97-19.52,137.5-54.64,209.82-65.2c106.8-15.59,220.32,27.48,289.91,109.98
			c69.59,82.5,92.9,201.65,59.53,304.29c-16.79,51.69-47.18,105.15-30.51,156.89c13.61,42.26,54.54,68.51,83.2,102.42
			C1803.52,1101.74,1814.2,1188.18,1808.08,1268.2z"/>
		<g>
			<path class="st1" d="M1228.38,635.27c6.18-14.62,16.93-30.94,32.68-30.11c17.37,0.91,25.99,21.61,28.57,38.95
				c17.76,119.36-55.61,230.9-84.19,348.02c-2.02,8.29-2.68,19.28,4.91,23.1c24.72-12.94,41.22-37.37,55.36-61.57
				c47.27-80.86,79.73-169.48,119.35-254.43s88.03-168.26,159.65-228.22c17.31-14.49,47.26-25.61,58.79-6.08
				c4.4,7.45,3.77,16.76,2.54,25.33c-7.17,50-29.95,96.27-55.08,139.95c-67.75,117.77-154.51,223.35-246.85,322.67
				c-24.75,26.62-51.38,56.01-53.84,92.44c53.97-11.45,94.91-54.33,133.11-94.39c108.11-113.39,224.39-222.15,362.98-294.43
				c15.67-8.17,36.34-15.34,49.52-3.47c7.49,6.74,9.69,17.64,9.79,27.75c0.55,54.2-44.38,96.33-85.75,130.87
				c-91.7,76.53-186.11,153.86-297.82,195.43c-50.86,18.93-104.93,30.27-152.28,56.87c-3.42,1.92-7.02,4.18-8.43,7.86
				c-3.91,10.21,10.85,16.77,21.68,17.63c68.6,5.46,137.51,10.93,206.14,6.13c27.87-1.95,55.9-5.58,83.66-2.23
				c27.75,3.35,55.92,14.75,72.78,37.25c16.86,22.5,18.74,57.46-0.83,77.54c-25.47,26.13-68.62,15.93-103,3.92
				c-99.03-34.6-198.05-69.2-297.08-103.79c-103.85-36.28-61.22-119.64-55.51-205.73C1195.17,812.85,1192.74,719.49,1228.38,635.27z
				"/>
		</g>
		<g>
			<g>
				<path class="st2" d="M703.49,1734.09c-35.51,10.6-77.13,8.04-105.49-15.81c-28.36-23.85-36.34-72.02-10.36-98.44
					c8.14-8.27,19.03-14.29,24.26-24.65c9.46-18.75-5.51-42.22-24.93-50.22c-19.42-8-41.32-5.31-62.28-3.97
					c-43.71,2.8-93.84-4.12-119.07-39.93c-22.15-31.44-15.14-79.19,14.02-104.27c11.09-9.54,25.9-17.87,27.98-32.36
					c3.14-21.82-23.82-34.21-45.33-39c-26.41-5.89-53.59-11.8-76.13-26.77c-22.54-14.97-39.69-41.42-35.46-68.15
					c3.26-20.56,17.98-37.1,28.19-55.24c10.21-18.14,15.15-43.24,0.61-58.14c-10.74-11-27.71-11.98-42.46-16.32
					c-35.73-10.51-60.92-42.84-76.55-76.65c-17.47-37.78-23.27-88.81,8.49-115.71c30.55-25.88,79.94-12.98,107.97,15.6
					c28.03,28.58,40.99,68.14,56.63,104.99c3.28,7.73,7.25,15.99,14.77,19.74c19.88,9.92,36.5-17.89,55.94-28.64
					c24.61-13.6,57.1,3.9,69.6,29.1c12.49,25.2,10.52,54.84,8.07,82.86c-2.45,28.02-4.84,57.54,6.96,83.06
					c6.03,13.04,16.25,24.81,29.87,29.39c30.23,10.17,60.29-17.47,92.16-18.77c40.13-1.64,70.16,39.22,77.15,78.77
					s-1.04,80.34,3.28,120.26c0.44,4.04,1.06,8.23,3.31,11.62c7.21,10.86,23.93,6.41,35.58,0.54
					c33.86-17.06,66.72-36.11,98.33-57.04c15.86-10.5,34.69-21.98,52.62-15.65c10.77,3.8,18.43,13.37,24.21,23.23
					c16.78,28.63,22.32,63.66,15.19,96.07c-6.59,29.93-23.18,56.55-39.5,82.5c-23.53,37.42-47.97,101.22-88.16,123.11
					C797.3,1708.62,742.54,1722.44,703.49,1734.09z"/>
			</g>
			<path class="st3" d="M831.13,1676.4c-28.87-48.59-65.92-91.82-105.38-132.57c-8.11-10.4-12.5-23.11-16.02-35.37
				c-12.41-43.23-16.33-89.7-11.32-134.4c0.07-0.59-0.19-1.18-0.67-1.53c-0.48-0.35-1.12-0.41-1.66-0.17l-3.76,1.72
				c-0.83,0.38-1.2,1.36-0.82,2.2c0.38,0.83,1.36,1.2,2.2,0.82l1.11-0.51c-4.57,44.23-0.52,90.07,11.74,132.78
				c2.19,7.64,4.89,15.92,8.74,23.75c-19.24-19.48-38.92-38.44-58.4-57.2c-26.85-25.86-54.06-52.08-79.92-79.49
				c-17.97-37.27-21.81-81.17-10.47-120.97c0.25-0.88-0.26-1.8-1.14-2.05c-0.88-0.25-1.8,0.26-2.05,1.14
				c-10.67,37.45-8.16,78.47,6.7,114.44c-36.95-39.87-70.78-82.41-96.37-130.19c-4.79-8.95-9.38-18.24-13.81-27.22
				c-1.89-3.82-3.79-7.67-5.72-11.52c-3.84-21.45-2.18-45.97,5.09-74.83c3.92-15.58,9.01-31.02,15.12-45.88
				c0.35-0.85-0.06-1.82-0.9-2.16c-0.85-0.35-1.82,0.06-2.16,0.9c-6.17,15.01-11.31,30.59-15.27,46.33
				c-6.32,25.11-8.46,47.02-6.49,66.57c-6.8-13.14-14.13-26.15-22.75-38.21c-13.84-19.36-31.06-36.36-47.7-52.79
				c-3.86-3.81-7.71-7.62-11.53-11.45c-10.92-10.98-21.56-22.26-31.92-33.82c-8.59-26.88-11.7-55.82-8.97-83.89
				c0.09-0.91-0.58-1.72-1.49-1.81c-0.91-0.09-1.72,0.58-1.81,1.49c-2.54,26.13-0.1,53.01,7.04,78.33
				c-25.54-28.99-49.25-59.65-70.81-91.61c-0.51-0.76-1.54-0.96-2.3-0.45c-0.76,0.51-0.96,1.54-0.45,2.3
				c22.97,34.06,48.39,66.64,75.85,97.31c0.19,0.57,0.36,1.15,0.55,1.73c0.26,0.79,1.06,1.25,1.86,1.11
				c0.03-0.01,0.07-0.02,0.1-0.03c9.75,10.8,19.76,21.37,30.01,31.67c3.82,3.84,7.69,7.66,11.55,11.47
				c11.57,11.43,23.42,23.13,34.18,35.68c-21.22-14.7-45.75-23.94-71.52-26.85c-0.91-0.1-1.73,0.55-1.83,1.46
				c-0.1,0.91,0.55,1.73,1.46,1.83c27.94,3.16,55.49,14.47,77.58,31.87c0.39,0.3,0.86,0.41,1.31,0.33c0.03,0,0.05-0.02,0.07-0.03
				c2.09,2.65,4.12,5.34,6.08,8.07c10.38,14.51,18.9,30.49,26.89,46.42c0.14,0.76,0.27,1.53,0.42,2.29c0.14,0.7,0.71,1.2,1.37,1.3
				c1.38,2.78,2.76,5.56,4.12,8.33c4.44,9.01,9.04,18.32,13.86,27.32c10.1,18.86,21.47,36.89,33.8,54.27
				c-7.63-6.06-15.99-10.95-23.58-15.09c-30.3-16.54-62.65-29.12-96.16-37.4c-0.89-0.22-1.79,0.32-2.01,1.21
				c-0.22,0.89,0.32,1.79,1.21,2.01c33.24,8.21,65.32,20.7,95.37,37.1c10.97,5.98,22.38,12.85,31.6,22.44
				c0.37,0.39,0.89,0.55,1.38,0.49c18.98,25.55,39.95,49.7,61.89,72.96c0.37,0.76,0.73,1.52,1.11,2.27
				c0.34,0.67,1.06,1.01,1.77,0.89c0.03,0,0.05-0.02,0.08-0.03c17.95,18.9,36.51,37.24,55.12,55.3c-7.97-4.55-16.46-7.9-24.27-10.69
				c-41.42-14.76-86.54-21.82-130.49-20.41c-0.91,0.04-1.63,0.8-1.6,1.71c0.03,0.92,0.79,1.63,1.71,1.6
				c43.54-1.39,88.24,5.6,129.27,20.22c12.5,4.45,26.72,10.36,37.48,20.36c0.4,0.37,0.92,0.51,1.42,0.42
				c0.04-0.01,0.07-0.03,0.11-0.04c2.89,2.79,5.79,5.58,8.68,8.36c22.98,22.13,46.24,44.54,68.71,67.75c0.45,0.57,0.9,1.14,1.37,1.7
				c0.21,0.25,0.48,0.41,0.77,0.51c20.21,20.96,39.74,42.6,57.82,65.27c-39.94-21.22-89.02-21.92-128.82-22.47
				c-0.92-0.01-1.67,0.72-1.68,1.63c-0.01,0.92,0.72,1.67,1.64,1.68c41.37,0.57,92.86,1.29,133.01,25.27
				c0.27,0.16,0.56,0.21,0.84,0.21c14.5,18.63,28,37.97,40.04,58.24c0.36,0.61,1.05,0.9,1.71,0.79c0.19-0.03,0.38-0.1,0.56-0.21
				C831.34,1678.2,831.6,1677.19,831.13,1676.4z"/>
		</g>
		<g>
			<g>
				<path class="st4" d="M1240.75,1374.82c4.6,17.11,11.17,33.68,19.53,49.29c-0.8-25.23-0.81-52.93,15.29-72.38
					c7.51-9.07,17.81-15.33,28.06-21.14c43.24-24.53,89.21-44.24,136.79-58.67c2.93-0.89,6.06-1.76,9.01-0.92
					c3.26,0.93,5.57,3.74,7.67,6.4c13.09,16.62,26.17,33.24,39.26,49.86c4.84-20.95,3.82-43.23-2.9-63.65
					c45.86-25.3,94.44-45.65,144.65-60.57c2.37-0.71,4.98-1.39,7.26-0.41c2.44,1.05,3.73,3.68,4.82,6.1
					c4.59,10.21,9.18,20.42,13.78,30.63c-4.63-18.3,6.84-37.61,22.57-48.04s34.92-13.92,53.51-17.18
					c5.15,10.98,10.3,21.96,15.45,32.94c-5.76-11.36-0.31-25.83,9.21-34.3s22.15-12.34,34.36-15.97
					c34.9-10.39,69.8-20.78,104.7-31.17c-24.17,34-48.35,68-72.52,102.01c-12.18,17.13-24.74,34.64-42.19,46.36
					c-17.45,11.71-41.11,16.56-59.62,6.6c7.44,6.16,14.87,12.33,22.31,18.49c2.25,1.87,4.69,4.09,4.82,7.02
					c0.13,2.85-1.99,5.24-3.97,7.3c-29.34,30.44-58.68,60.88-88.02,91.31c-17.87,18.54-38.8,38.43-64.55,38.2
					c-19.46-0.17-39.52-12.06-57.36-4.28c8.85,8.3,17.7,16.61,26.55,24.91c1.75,1.64,3.57,3.41,4.16,5.73
					c0.89,3.54-1.34,7.04-3.48,10c-8.54,11.87-17.26,23.71-27.69,33.96c-26.83,26.34-73.55,39.35-101.13,13.8
					c11.36,10.45,22.72,20.9,34.07,31.35c-56.71,69.1-138.67,117-226.71,132.49c-27.89,4.91-57.27,6.55-83.92-3.03
					C1012.1,1633.03,1157.61,1423.78,1240.75,1374.82z"/>
			</g>
			<g>
				<path class="st5" d="M1137.77,1270.03c7.16,13.36,15.87,25.89,25.88,37.26c-5.59-20.86-10.99-43.95-1.37-63.29
					c4.49-9.02,11.85-16.24,19.26-23.08c31.25-28.86,65.71-54.25,102.54-75.54c2.27-1.31,4.71-2.65,7.33-2.52
					c2.9,0.14,5.37,2.03,7.64,3.84c14.14,11.3,28.29,22.59,42.43,33.89c-0.05-18.4-5.24-36.76-14.82-52.47
					c33.28-30.02,69.79-56.44,108.71-78.66c1.84-1.05,3.88-2.13,5.97-1.75c2.24,0.4,3.83,2.34,5.21,4.15
					c5.82,7.61,11.63,15.22,17.45,22.84c-7.42-14.34-1.63-32.67,9.45-44.42c11.08-11.75,26.38-18.4,41.24-24.74
					c6.43,8.15,12.86,16.29,19.29,24.44c-7.02-8.34-5.29-21.46,0.99-30.37c6.28-8.91,16.05-14.59,25.52-20
					c27.05-15.46,54.11-30.92,81.16-46.38c-13.51,33.04-27.03,66.08-40.54,99.12c-6.81,16.64-13.87,33.69-26.12,46.85
					s-31.03,21.81-48.39,17.12c7.4,3.69,14.79,7.37,22.19,11.06c2.24,1.12,4.71,2.49,5.39,4.91c0.66,2.35-0.63,4.76-1.88,6.85
					c-18.51,31.08-37.03,62.15-55.54,93.23c-11.28,18.93-24.84,39.58-46.33,44.41c-16.25,3.65-35.28-2.35-48.63,7.61
					c8.99,5.19,17.98,10.39,26.97,15.58c1.77,1.03,3.64,2.14,4.58,3.96c1.43,2.77,0.25,6.12-0.95,9.01
					c-4.81,11.55-9.76,23.12-16.46,33.69c-17.22,27.17-53.61,47.12-81.57,31.21c11.5,6.49,23,12.98,34.5,19.48
					c-33.78,68.62-92.74,124.5-163.07,154.57c-22.28,9.52-46.44,16.62-70.51,13.82C997.58,1529.72,1078.04,1327.02,1137.77,1270.03z
					"/>
			</g>
			<path class="st4" d="M1558.36,1039.37c-0.47-0.79-1.49-1.04-2.28-0.57c-43.8,26.34-88.74,53.38-129.48,85.75
				c2.85-4.24,5.1-8.83,7.17-13.08l12.65-25.97c3.07-6.29,6.54-13.42,6.53-21.15c0-0.92-0.74-1.66-1.66-1.66c0,0,0,0,0,0
				c-0.92,0-1.66,0.74-1.66,1.66c0.01,6.96-3.29,13.73-6.2,19.69l-12.65,25.97c-3.41,7-6.94,14.25-12.69,19.53
				c-0.6,0.55-0.67,1.43-0.25,2.09c-9.2,7.61-18.16,15.5-26.81,23.76c-30.43,29.05-57.01,62.5-82.57,95.3
				c-0.28,0.17-0.56,0.33-0.84,0.5c-0.58,0.34-0.87,0.98-0.8,1.61c-1.34,1.72-2.67,3.43-4,5.14c-4.93,6.34-9.87,12.68-14.82,18.99
				c-18.56,23.62-37.66,47.05-57.01,70.25l46.1-173.69c0.23-0.89-0.29-1.79-1.18-2.03c-0.89-0.23-1.79,0.29-2.03,1.18l-47.92,180.56
				c-33.04,39.47-66.75,78.28-99.78,116.29l-0.02,0.03c-0.6,0.69-0.52,1.73,0.18,2.33c0.31,0.27,0.7,0.4,1.08,0.4
				c0.47,0,0.94-0.2,1.27-0.58c32.63-37.56,65.93-75.9,98.6-114.88c0.68-0.05,1.29-0.51,1.48-1.21l0.21-0.81
				c20.93-25.01,41.59-50.28,61.64-75.78c4.96-6.31,9.9-12.65,14.83-19c1.75-2.24,3.5-4.5,5.25-6.75
				c49.25-29.18,101.06-54.97,154.02-76.67c0.85-0.35,1.25-1.31,0.91-2.16c-0.35-0.85-1.31-1.25-2.16-0.91
				c-50.53,20.69-100,45.1-147.21,72.62c23.91-30.56,48.85-61.38,77.08-88.32c48.84-46.62,107.62-81.97,164.47-116.16
				C1558.58,1041.18,1558.84,1040.16,1558.36,1039.37z"/>
			<path class="st5" d="M1731.56,1239.89c-0.47-0.79-1.48-1.05-2.27-0.59c-43.53,25.71-86.51,52.93-128.61,81.41
				c12.58-26.58,28.06-51.81,46.07-75.05c0.56-0.72,0.43-1.77-0.29-2.33c-0.72-0.56-1.77-0.43-2.33,0.29
				c-19.02,24.53-35.24,51.27-48.23,79.46c-0.14,0.31-0.18,0.63-0.13,0.94c-28,19.03-55.59,38.63-82.7,58.72
				c-0.38,0.13-0.77,0.26-1.16,0.39c-0.58,0.2-0.97,0.7-1.08,1.26c-6.08,4.52-12.15,9.05-18.18,13.62
				c-13.84,10.48-27.85,21.31-41.39,31.79c-10.51,8.13-21.07,16.3-31.72,24.43c9.96-37.45,25.78-72.84,47.08-105.26
				c0.5-0.76,0.29-1.79-0.48-2.3c-0.76-0.5-1.79-0.29-2.3,0.48c-22.28,33.9-38.62,71.03-48.6,110.35
				c-55.31,42.08-112.95,82.81-176.7,110.61c-17.65,7.7-38.74,15.83-61.28,17.74c-0.91,0.08-1.59,0.88-1.51,1.79
				c0.07,0.86,0.8,1.52,1.65,1.52c0.05,0,0.09,0,0.14-0.01c23.02-1.95,44.42-10.19,62.32-18c30.9-13.48,60.34-29.96,88.77-48.14
				c0.01,0,0.02,0.01,0.03,0.01c0.15,0,0.31-0.02,0.46-0.07c29.65-8.58,61.04-8.46,91.41-8.34l20.41,0.08
				c0.95,0.03,1.66-0.74,1.66-1.65c0-0.92-0.74-1.66-1.65-1.66l-20.41-0.08c-27.55-0.11-55.94-0.2-83.3,6.15
				c40.24-26.39,78.5-55.98,116.03-85.01c13.54-10.47,27.53-21.3,41.36-31.77c6.62-5.02,13.29-9.99,19.98-14.95
				c30.47-10.44,62.08-17.87,94.01-22.08c2.8-0.37,5.61-0.72,8.43-1.07c19.28-2.39,39.21-4.85,56.41-14.35
				c0.8-0.44,1.09-1.45,0.65-2.25c-0.44-0.8-1.45-1.09-2.25-0.65c-16.64,9.19-36.25,11.62-55.22,13.96
				c-2.83,0.35-5.65,0.7-8.46,1.07c-28.79,3.8-57.34,10.2-85.03,19.04c66.82-49.09,136.58-95.17,207.81-137.24
				C1731.77,1241.7,1732.03,1240.68,1731.56,1239.89z"/>
		</g>
		<g>
			<g>
				<path class="st5" d="M555.09,843.52c-9.51-3.49-18.11-7.65-26.77-13.06c-20.24-12.64-40.48-25.27-60.73-37.91
					c-6.66-4.16-13.72-8.44-21.56-8.75c-7.84-0.31-16.49,4.99-16.91,12.83c-0.29,5.46,3.31,10.31,7.1,14.25
					c15.51,16.12,36.92,25.56,58.78,30.29C503.78,843.07,552.74,852.19,555.09,843.52z"/>
			</g>
			<g>
				<path class="st5" d="M384.66,454.51c-11.61-0.97-21.2,9.73-24.76,20.83c-5.26,16.38-1.75,34.35,4.32,50.45
					c11.88,31.52,33.16,55.23,52.66,81.53c6.09,22.91,16.61,44.69,27.85,65.68c8.24,15.38,16.92,30.5,25.94,45.42
					c-7.9-8.62-25.51-16.92-33.2-24.14c-14.09-13.23-26.26-28.83-42.61-39.14c-8.29-5.23-17.93-9.04-27.7-8.22
					c-3.22,0.27-6.69,1.23-8.55,3.87c-1.25,1.78-1.56,4.06-1.5,6.23c0.22,7.58,4.59,14.56,10.28,19.57
					c5.69,5.01,12.63,8.33,19.52,11.51c26.61,12.29,57.42,29.24,86.34,34.56c22.71,37.17,47.61,73.03,73.57,108.02
					c36.46,49.14,75.1,96.67,115.73,142.42c-36.25-9.19-66.43-30-102.83-40.52c-5.75-1.66-11.77-2.93-17.69-2.08
					c-5.92,0.85-11.78,4.17-14.3,9.59c-2.7,5.82-1.05,12.95,2.7,18.14c3.76,5.2,9.31,8.79,14.93,11.87
					c37.33,20.49,82.35,21.85,122.4,8.85c38.41,42.94,78.6,84.29,120.41,123.92c-16.81-4.38-33.32-7.76-49.74-15.44
					c-18.38-8.6-35.91-18.93-54.5-27.1c-9.18-4.04-18.85-7.56-28.88-7.63c-10.13-0.07-21.79,5.35-23.11,15.39
					c-0.87,6.59,3.03,12.86,7.4,17.87c17.87,20.52,45.65,30.41,72.83,31.71c22.67,1.08,57.71-0.76,78.28-12.66
					c35.77,33.8,72.72,66.35,110.78,97.54c-22.92-3.54-46.15-4.25-69.06-10.41c-16.64-4.47-32.99-10.26-49.99-13.03
					c-11.28-1.83-23.28-2.23-33.69,2.49c-10.41,4.72-18.64,15.71-17.07,27.03c1.66,11.9,12.88,20,23.86,24.89
					c25.78,11.49,55.81,13.14,82.69,4.53c22.09-7.07,47.43-19.49,67.41-32.13c6.84,5.58,13.71,11.13,20.62,16.62
					c11.52,9.15,23.43,18.32,36.67,24.48c17.73,9.89,36.78,17.43,56.49,22.29c-45.1-30.14-88.57-61.97-130.34-95.42
					c-1.91-9.23-2.48-18.62-0.16-28.01c3.87-15.68,14.76-28.54,22.01-42.98c11.35-22.62,12.49-52.54-4.58-71.22
					c-3.94-4.31-8.99-7.99-14.79-8.71c-7.7-0.96-15.31,3.62-19.86,9.9c-4.56,6.28-6.57,14.04-7.95,21.68
					c-7.74,42.86,4.39,78.99,21.48,116.23c-43-34.62-84.18-70.94-123.45-108.91c0.45-20.37,7.97-39.4,14.9-58.67
					c8.13-22.59,14.46-48.32,4.07-69.96c-3.65-7.6-10.53-14.85-18.95-14.46c-10.62,0.49-16.73,12.26-19.07,22.63
					c-3.36,14.91-3.51,30.4-2.22,45.63c2.07,24.55,8.85,47.38,16.56,70.27c-38.56-37.55-75.25-76.68-110.02-117.32
					c4.79-7.08,7.88-24.25,10.26-29.78c5.33-12.38,10.22-25.11,12.11-38.45s0.6-27.48-5.88-39.3c-2.54-4.63-6.28-9.14-11.45-10.22
					c-9.36-1.96-16.87,7.97-19.63,17.13c-4.77,15.82-3.44,32.75-2.05,49.21c0.68,8.08,0.36,22.18,2.09,34.2
					c-32.14-38.57-62.55-78.46-91.18-119.61c0.82,0.75,1.69,1.39,2.65,1.87c7.41-14.95,10.87-34.13,17.28-50.04
					c9.11-22.6,16.78-48.22,7.71-70.83c-1.81-4.52-5.2-9.36-10.06-9.31c-4.81,0.05-8.05,4.81-10.21,9.1
					c-10.79,21.41-16.42,45.31-16.76,69.26c-0.13,9.28-0.61,31.48,5.23,43.97c-23.75-34.44-46.25-69.77-67.46-105.92
					c1.63-5.63,4.44-10.98,7.48-16.43c6.61-11.86,12.76-23.96,18.44-36.29c8-17.36,15.19-35.83,14.45-54.93
					c-0.26-6.78-2.41-14.65-8.75-17.08c-7.68-2.94-15.39,4.07-20.1,10.82c-19.97,28.66-26.27,63.83-21,97.59
					c-15.27-26.69-29.83-53.84-43.7-81.42c-2.94-22.74,3.19-46.77,2.71-69.56c-0.36-17-4.42-33.91-11.82-49.22
					C402.59,465.25,395.21,455.39,384.66,454.51z"/>
			</g>
		</g>
	</g>
	<g>
		<path class="st6" d="M670.11,520.04c-1.76-5.71-2.71-11.63-2.66-17.66c0.11-11.37,3.78-22.45,8.77-32.66
			c12.29-25.13,32.37-45.55,53.23-64.19c49.57-44.3,100.44-81.76,166.32-94.52c38.48-7.45,89.32-1.16,123.54,17.76
			c61.93,34.23,122.87,82.15,141.51,150.41c7.41,27.12,7.55,55.63,11.34,83.49c3.8,27.86,12.1,56.61,32.19,76.28
			c15.15,14.83,35.44,22.99,53.05,34.79c36.74,24.63,61.18,65.59,69.27,109.08c8.09,43.49,0.56,89.12-17.43,129.53
			c-12.98,29.14-31.42,56.34-37.99,87.56c-7.85,37.31,2.06,76.97-7.87,113.77c-8.89,32.95-33.7,60.63-64.33,75.69
			s-66.51,18-99.92,11.02c-31.19-6.51-60.01-21.14-88.4-35.62c-64.5-32.89-137.07-46.48-192.65-96.5
			c-48.02-43.3-77.26-113.54-54.89-174.2c8.94-24.25,25.77-48.03,20.83-73.4c-4.13-21.21-22.26-36.24-36.45-52.55
			c-22.61-25.98-37.14-62.4-26.48-95.16c7.19-22.07,36.73-52.34,25.19-77.13c-8.69-18.66-41.14-28.07-55.63-42.74
			C681.48,543.8,673.92,532.42,670.11,520.04z"/>
		<path class="st7" d="M1209.32,1683.37c-0.67,3.12-1.37,6.28-2.47,9.31c-28.3,3.76-56.69,6.82-85.12,9.31
			c-3.49-0.19-7.05,0.07-10.71,0.91c0,0-0.01,0-0.02,0l-231.59,9.01c-33.6,0.11-67.4-0.42-101.25-1.89h-0.01
			c-32.16-12.34-55.78-34.23-76.51-58.67c-23.82-28.09-50.73-50.86-69.41-82.59c-8.99-15.26-16.6-31.13-22.78-47.41
			c-18.21-47.92-24.03-99.45-15.87-149.44c10.42-63.89,43.09-124.29,90.95-173.59c29.87-30.79,65.68-57.24,105.68-77.52
			c3.8-1.92,8.14-3.98,12.49-6.25h0.01c12.08-6.28,24.31-14.24,25.4-25.87c0.44-4.65-0.73-9.39-2.75-14.15
			c-5.13-12.09-15.72-24.3-19.14-35.39c-11.91-38.67-4.95-81.79,19.15-115.94c15.3-21.69,40.91-39.52,59.85-59.4
			c15.43-16.2,31.72-31.77,48.78-46.65c9.41-8.22,19.05-16.23,28.92-24.01c4.36-3.43,8.77-6.81,13.28-10.08
			c12.78-9.27,26.3-17.57,41.15-23.06c13.41-4.95,25.58-9.86,39.89-6.99c7.19,1.45,14.26,3.65,21.1,6.43
			c6.57,2.68,12.92,5.91,18.94,9.54c17.36,10.5,32.4,24.95,43.36,42.03c0.01,0,0.01,0.01,0.01,0.01c4.32,6.72,8,13.86,10.93,21.32
			c4.41,11.23,7.23,23.04,9.16,34.96c13.64,84.25-16.41,163.02-42.64,241.28c-1.82,5.42-3.61,10.83-5.38,16.24
			c-7.44,22.84-13.14,46.1-13.83,70.54c-0.01,0.32-0.01,0.64-0.02,0.96c-0.03,1.34-0.04,2.66-0.04,3.99c0,4.32,0.15,8.66,0.5,13.06
			c2.11,27.32,10.1,53.35,21,78.8c0.01,0.03,0.03,0.08,0.04,0.11c24.78,57.77,64.52,112.49,84.37,172.2
			C1223.11,1519.73,1221.53,1627,1209.32,1683.37z"/>
		<g>
			<path class="st8" d="M898.61,1627.79c-10.98,24.04-21,49.57-19.94,75.98c0.11,2.71,0.35,5.42,0.75,8.13
				c-33.6,0.11-67.4-0.42-101.25-1.89c-0.01,0.01-0.01,0-0.01,0c-32.16-12.34-55.78-34.23-76.51-58.67
				c-23.82-28.09-50.73-50.86-69.41-82.59c-8.99-15.26-16.6-31.13-22.78-47.41c39.45,47.82,91.14,85.25,152.07,99.82
				c18.23,4.37,37.13,6.61,55.89,5.42c17.59-1.13,33.78-7.01,50.62-11.13c15.75-3.86,30.51-17.96,41.41-29.31
				c12.6-13.12,23.33-27.9,33.72-42.79C926.72,1570.62,911.84,1598.83,898.61,1627.79z"/>
		</g>
		<g>
			<path class="st8" d="M920.49,1068.92c26.66,7.49,56.36-0.72,78.7-15.97c22.34-15.26,38.46-36.79,52.82-58.63
				c-7.89,25.51-19.6,50.62-39.08,70.26c-19.49,19.65-47.68,33.27-76.67,31.89c-31.96-1.52-65.43-25.26-64.46-56.43
				C887.4,1042.03,902.73,1063.94,920.49,1068.92z"/>
		</g>
		<path class="st9" d="M1075.7,743.9c1.32,6.57,2.41,13.24,3.21,20.05c1.26,10.72-4.64,17.58-10.55,25.91
			c-6.51,9.17-13.2,18.24-20.28,26.98c-14.03,17.31-29.74,33.47-48.24,46.05c-5.16,3.51-10.63,6.77-16.7,8.2
			c-6.07,1.43-12.89,0.79-17.88-2.95c-7.74-5.81-8.93-16.92-8.08-26.56c1.07-12.23,4.33-24.26,9.59-35.36
			c3.29-6.96,8.06-13.96,9.26-21.68c1.19-7.7-1.39-15.68-3.67-22.94c-14.59-46.6-39.68-114.33-3.73-157.71
			c10.55-12.73,27.99-16.65,42.69-8.63c19.14,10.44,25.56,38.8,33.36,57.39C1057.35,682.86,1069.31,712.18,1075.7,743.9z"/>
		<path class="st10" d="M759.97,496.09c-5.49,19.62-11.12,40.09-8.44,60.64c3.05,23.36,15.89,38.46,29.98,56.3
			c7.13,9.02,14.49,18.56,16.43,29.89c1.44,8.43-0.28,17.05-0.43,25.61s1.75,17.97,8.48,23.25c10.28,8.06,27.43,3.31,36.28,12.91
			c3.2,3.47,4.63,8.25,7.72,11.82c6.68,7.73,18.66,7.59,27.54,12.63c10.77,6.11,15.82,19.08,25.75,26.49
			c31.84,23.75,70.68-28.46,90.2-48.04c15.47-15.51,31.03-31.14,43.39-49.23c39.97-58.45,21.71-141.25-14.47-197.54
			c-11.63-18.1-26.12-34.94-44.88-45.47c-18.55-10.41-40.11-14.04-61.3-15.96c-39.06-3.54-80.86-1.39-115.83,18.17
			C770.79,434.12,768.56,465.41,759.97,496.09z"/>
		<path class="st6" d="M796.31,488.25c18.76-8.32,42.33-8.99,58.46,3.69c29.99,23.56,18.75,76.05,46.59,102.11
			c27.76,25.99,77.46,10.45,106.64,34.84c9.25,7.73,15.35,18.77,24.86,26.17c15.35,11.94,38.92,11.78,54.1-0.38
			c4.16-52.08-10.56-103.86-29.35-152.61c-19.22-49.87-45.79-101.19-92.97-126.3c-19.95-10.62-42.58-15.8-65.18-16.38
			c-42.6-1.08-85.84,14.82-115.93,45c-21.97,22.03-36.38,51.62-40.02,82.53c-1.2,10.25-3.76,30.2,12.09,29.09
			C766.87,515.22,784.74,493.38,796.31,488.25z"/>
		<g>
			<path class="st10" d="M1168.59,854.36c20.23,54.55,39.06,109.08,48.51,166.66c9.84,60.02,13.86,120.86,15.08,181.62
				c0.22,11.01,0.31,22.3-3.44,32.66c-6.39,17.64-25.84,24.87-41.87,31.56c-105.46,43.99-220.74,73.98-334.42,85.55
				c-25.82,2.63-53.79,16.24-77.86-0.66c-19.63-13.79-23.5-51.18,2.19-59.95c12.47-4.26,27.93-3.85,41.39-8.43
				c19.95-6.79,39.9-13.56,59.89-20.25c77.41-25.9,155.25-50.64,234.24-71.29c27.92-7.3,35.43-17.02,25.57-43.68
				c-7.11-19.24-19.01-35.97-27.2-54.64c-17.28-39.38-29.15-78.01-36.99-119.86c-8.51-45.4-23.65-87.13-9.59-133.62
				c7.15-23.62,28.06-53.72,56.3-42.45C1142.83,806.53,1160.47,832.49,1168.59,854.36z"/>
			<path class="st10" d="M724.65,1307.87c-8.3,5.56-16.98,13.1-17.17,23.09c12.29,1.81,25.19-0.92,35.68-7.56
				c-19.67,20.79-36.91,43.87-51.24,68.64c-3.65,6.31-6.29,16.01,0.12,19.49c9.4-7.1,18.26-14.93,26.47-23.38
				c-6.72,11.73-10.64,25.04-11.34,38.54c-0.16,3.05,0,6.5,2.25,8.56c10.4,9.53,27.82-25.65,32.04-31.85
				c-2.92,11.87-5.61,23.79-8.07,35.76c-0.44,2.13-0.86,4.37-0.2,6.44c3.82,11.86,15.3,1.94,18.13-4.19
				c7.4-15.99,14.8-31.98,22.2-47.97c-3.55,8.04-7.18,16.74-5.38,25.34c0.28,1.32,0.79,2.75,1.99,3.35
				c1.78,0.89,3.82-0.52,5.21-1.94c8.51-8.71,12.7-20.89,21.06-29.73c10.82-11.44,26.5-16.81,40.41-23.57
				c11.61-5.65,23.23-11.29,34.55-17.5c9.72-5.33,19.46-11.27,26.15-20.11c11.1-14.68,14.55-35.38-1.06-47.51
				c-23.49-18.24-57.35-12.25-84.83-7.87C780.65,1278.85,750.72,1290.43,724.65,1307.87z"/>
		</g>
		<path class="st10" d="M787.54,1124.82c-7.44,3.99-16.86,8.47-17.11,16.91c-0.18,6.13,4.85,11,9.49,15.01
			c7.82,6.77,15.64,13.53,23.46,20.3c1.96,1.7,4.01,3.52,4.81,5.99c1.89,5.84-4.65,11.55-10.79,11.52
			c-6.14-0.03-11.59-3.65-16.91-6.7c-5.33-3.05-11.66-5.7-17.46-3.67c7.72,3.63,16.83,9.93,14.91,18.24
			c-1.45,6.24-9.06,9.37-15.35,8.17c-6.3-1.2-11.51-5.46-16.42-9.58c7.65,2.91,7.8,16.01,0.23,19.1
			c-10.94,4.46-20.34-10.67-32.09-11.94c3.74,2.18,3.36,8.36-0.07,11c-3.43,2.64-8.49,2.16-12.24,0.01s-6.51-5.65-9.16-9.07
			c-5.56-7.17-11.3-14.73-12.81-23.68c-2.41-14.28,6.49-27.88,15.91-38.88c19.44-22.7,42.5-36.6,71.46-42.75
			c8.58-1.82,29.15-10.89,36.66-7.49C820.71,1104.88,795.65,1120.48,787.54,1124.82z"/>
		<path class="st6" d="M830.64,558.85c9.67-2.15,19.77-1.2,29.52,0.57c-18.85,0.35-38.37,6.32-51.29,20.06
			c-3.72,3.95-6.88,8.52-11.3,11.66c-3.08,2.19-13.96,6.49-10.82-0.79c2.06-4.78,9.15-10,12.93-13.51
			C808.49,568.65,818.7,561.5,830.64,558.85z"/>
		<path class="st6" d="M836.13,614.54c5.34-5.28,10.67-10.56,16.01-15.84c-6.28,9.09-12.31,18.39-19.84,26.58
			c-2.73,2.97-5.7,5.89-9.4,7.51c1.01-1.37,2.01-2.74,3.01-4.11c-3.37,1.7-7.1,2.69-10.87,2.89c2.56-1.41,8.05-5.5,6.37-8.84
			c-1.83-3.61-4.59-6.81-5.59-10.73c1.88,3.06,3.97,5.98,6.25,8.75c0.59,0.71,1.25,1.46,2.14,1.69c2.08,0.55,5.41-1.79,6.95-3.06
			C832.95,617.91,834.49,616.17,836.13,614.54z"/>
	</g>
</g>
</svg>
